<?xml version="1.0" encoding="UTF-8"?>
<svg width="354px" height="354px" viewBox="0 0 354 354" version="1.1" xmlns="http://www.w3.org/2000/svg" xmlns:xlink="http://www.w3.org/1999/xlink">
    <!-- Generator: Sketch 51.3 (57544) - http://www.bohemiancoding.com/sketch -->
    <title>alex-orange-logo</title>
    <desc>Created with Sketch.</desc>
    <defs>
        <path d="M169.9375,106.03125 L201.71875,106.03125 L201.71875,243 L169.9375,243 L169.9375,228.65625 C156.906185,240.843811 142.8907,246.9375 127.890625,246.9375 C108.95303,246.9375 93.2969369,240.093818 80.921875,226.40625 C68.6405636,212.43743 62.5,195.000105 62.5,174.09375 C62.5,153.562397 68.6405636,136.453193 80.921875,122.765625 C93.2031864,109.078057 108.578033,102.234375 127.046875,102.234375 C142.984455,102.234375 157.281187,108.796809 169.9375,121.921875 L169.9375,106.03125 Z M94.84375,174.09375 C94.84375,187.218816 98.3593398,197.906209 105.390625,206.15625 C112.609411,214.500042 121.70307,218.671875 132.671875,218.671875 C144.390684,218.671875 153.859339,214.640665 161.078125,206.578125 C168.296911,198.234333 171.90625,187.640689 171.90625,174.796875 C171.90625,161.953061 168.296911,151.359417 161.078125,143.015625 C153.859339,134.859334 144.484433,130.78125 132.953125,130.78125 C122.078071,130.78125 112.984412,134.906209 105.671875,143.15625 C98.4530889,151.500042 94.84375,161.812439 94.84375,174.09375 Z" id="path-1"></path>
        <path d="M269.5625,129.375 L243.40625,143.296875 C239.281229,134.859333 234.171905,130.640625 228.078125,130.640625 C225.17186,130.640625 222.68751,131.601553 220.625,133.523438 C218.56249,135.445322 217.53125,137.906235 217.53125,140.90625 C217.53125,146.156276 223.624939,151.359349 235.8125,156.515625 C252.593834,163.734411 263.890596,170.390595 269.703125,176.484375 C275.515654,182.578155 278.421875,190.781198 278.421875,201.09375 C278.421875,214.312566 273.546924,225.374955 263.796875,234.28125 C254.328078,242.718792 242.890692,246.9375 229.484375,246.9375 C206.51551,246.9375 190.250048,235.734487 180.6875,213.328125 L207.6875,200.8125 C211.437519,207.375033 214.296865,211.546866 216.265625,213.328125 C220.109394,216.890643 224.703098,218.671875 230.046875,218.671875 C240.734428,218.671875 246.078125,213.796924 246.078125,204.046875 C246.078125,198.421847 241.953166,193.171899 233.703125,188.296875 C230.515609,186.703117 227.328141,185.156257 224.140625,183.65625 C220.953109,182.156242 217.718766,180.609383 214.4375,179.015625 C205.249954,174.515602 198.781269,170.015648 195.03125,165.515625 C190.249976,159.796846 187.859375,152.437545 187.859375,143.4375 C187.859375,131.53119 191.937459,121.687539 200.09375,113.90625 C208.437542,106.124961 218.56244,102.234375 230.46875,102.234375 C248.000088,102.234375 261.031207,111.28116 269.5625,129.375 Z" id="path-2"></path>
    </defs>
    <g id="Page-1" stroke="none" stroke-width="1" fill="none" fill-rule="evenodd">
        <g id="alex-orange-logo" transform="translate(1.000000, 1.000000)">
            <circle id="Oval" stroke-opacity="0.489187047" stroke="#9B9B9B" fill="#FFFFFF" fill-rule="nonzero" cx="176" cy="176" r="176"></circle>
            <circle id="Oval" stroke-opacity="0.489187047" stroke="#9B9B9B" fill="#FF9702" fill-rule="nonzero" cx="176" cy="176" r="176"></circle>
            <g id="a">
                <use fill="#000000" xlink:href="#path-1"></use>
                <use fill="#FFFFFF" xlink:href="#path-1"></use>
            </g>
            <g id="s">
                <use fill="#000000" xlink:href="#path-2"></use>
                <use fill="#9B9B9B" xlink:href="#path-2"></use>
            </g>
            <path d="M177,276 L247,276" id="Path-2" stroke="#FFFFFF" stroke-width="10"></path>
            <path d="M106,276 L176,276" id="Path-2" stroke="#9B9B9B" stroke-width="10"></path>
        </g>
    </g>
</svg>