<?xml version="1.0" encoding="UTF-8"?>
<svg width="20px" height="20px" viewBox="0 0 20 20" version="1.1" xmlns="http://www.w3.org/2000/svg" xmlns:xlink="http://www.w3.org/1999/xlink">
    <!-- Generator: Sketch 50.2 (55047) - http://www.bohemiancoding.com/sketch -->
    <title>Group 3</title>
    <desc>Created with Sketch.</desc>
    <defs></defs>
    <g id="Page-1" stroke="none" stroke-width="1" fill="none" fill-rule="evenodd">
        <g id="Group-3" fill="#000000">
            <path d="M7.46822572,10.0000021 L6,10.0000021 L6,12 L7.40061007,12 C7.61108287,11.9909502 8,11.8929111 8,11.0279045 C8,9.98944407 7.46822572,10.0000021 7.46822572,10.0000021" id="Fill-198"></path>
            <path d="M13.0714901,9 C12.1307144,9 12,10 12,10 L13.9999921,10 C13.9999921,10 14.0122657,9 13.0714901,9" id="Fill-199"></path>
            <path d="M8,8.46612466 C8,8 7.60891365,8 7.60891365,8 L7.40167131,8 L6,8 L6,9 L7.5091922,9 C7.76991643,9 8,8.93224932 8,8.46612466" id="Fill-200"></path>
            <path d="M14.983125,11.103125 L11.769375,11.103125 C11.769375,12.255 12.86125,12.1825 12.86125,12.1825 C13.891875,12.1825 13.855625,11.515625 13.855625,11.515625 L14.946875,11.515625 C14.946875,13.285625 12.824375,13.164375 12.824375,13.164375 C10.278125,13.164375 10.441875,10.79375 10.441875,10.79375 C10.441875,10.79375 10.439375,8.41125 12.824375,8.41125 C15.334375,8.41125 14.983125,11.103125 14.983125,11.103125 L14.983125,11.103125 Z M10.196875,11.204375 C10.196875,13.096875 8.226875,13.035 8.226875,13.035 L6.421875,13.035 L6.36875,13.035 L5,13.035 L5,6.833125 L6.36875,6.833125 L6.421875,6.833125 L8.226875,6.833125 C9.2075,6.833125 9.981875,7.375 9.981875,8.484375 C9.981875,9.594375 9.035625,9.664375 9.035625,9.664375 C10.283125,9.664375 10.196875,11.204375 10.196875,11.204375 L10.196875,11.204375 Z M11.490625,7.19875 L14.049375,7.19875 L14.049375,7.9625 L11.490625,7.9625 L11.490625,7.19875 Z M10,0 C4.476875,0 0,4.476875 0,10 C0,15.5225 4.476875,20 10,20 C15.523125,20 20,15.5225 20,10 C20,4.476875 15.523125,0 10,0 L10,0 Z" id="Fill-201"></path>
        </g>
    </g>
</svg>