<?xml version="1.0" encoding="UTF-8"?>
<svg width="20px" height="20px" viewBox="0 0 20 20" version="1.1" xmlns="http://www.w3.org/2000/svg" xmlns:xlink="http://www.w3.org/1999/xlink">
    <!-- Generator: Sketch 50.2 (55047) - http://www.bohemiancoding.com/sketch -->
    <title>Group 2</title>
    <desc>Created with Sketch.</desc>
    <defs></defs>
    <g id="Page-1" stroke="none" stroke-width="1" fill="none" fill-rule="evenodd">
        <g id="Group-2" fill="#000000">
            <path d="M15,14.990625 L12.928125,14.990625 L12.928125,11.748125 C12.928125,10.975 12.914375,9.980625 11.85125,9.980625 C10.773125,9.980625 10.60875,10.823125 10.60875,11.693125 L10.60875,14.990625 L8.53875,14.990625 L8.53875,8.323125 L10.525,8.323125 L10.525,9.235 L10.55375,9.235 C10.83,8.710625 11.50625,8.1575 12.514375,8.1575 C14.6125,8.1575 15,9.538125 15,11.33375 L15,14.990625 Z M6.2025,7.4125 C5.536875,7.4125 5,6.87375 5,6.210625 C5,5.5475 5.536875,5.00875 6.2025,5.00875 C6.865,5.00875 7.403125,5.5475 7.403125,6.210625 C7.403125,6.87375 6.865,7.4125 6.2025,7.4125 L6.2025,7.4125 Z M7.23875,14.990625 L5.164375,14.990625 L5.164375,8.323125 L7.23875,8.323125 L7.23875,14.990625 Z M10,0 C4.476875,0 0,4.476875 0,10 C0,15.5225 4.476875,20 10,20 C15.523125,20 20,15.5225 20,10 C20,4.476875 15.523125,0 10,0 L10,0 Z" id="Fill-209"></path>
        </g>
    </g>
</svg>